<svg width="220" height="220" viewBox="0 0 220 220" fill="none" xmlns="http://www.w3.org/2000/svg">
<circle cx="108.5" cy="117.5" r="98.5" fill="#D05937"/>
<path d="M109 8.40541V19.2162C91.9667 19.2162 82.5873 23 82.5873 23L77 15.973C79.5397 13.2703 82.0794 11.1081 82.0794 11.1081L85.6349 15.973V5.16216L102.981 3V10.5676L109 8.40541Z" fill="#B0CB63"/>
<path d="M109 8.40541V19.2162C126.033 19.2162 135.413 23 135.413 23L141 15.973C138.46 13.2703 135.921 11.1081 135.921 11.1081L132.365 15.973V5.16216L115.019 3V10.5676L109 8.40541Z" fill="#96B149"/>
<circle cx="106.5" cy="117.5" r="80.5" fill="#F7AA7F"/>
<circle cx="108.5" cy="117.5" r="66.5" fill="#D05937"/>
<circle cx="110" cy="118" r="15" fill="#F7AA7F"/>
<path d="M110 38V198" stroke="#F7AA7F" stroke-width="10"/>
<rect x="141" y="179.244" width="140" height="4" rx="2" transform="rotate(-120 141 179.244)" fill="#F7AA7F"/>
<path d="M66 118.04C66 118.04 48.3567 112.541 44.7243 114.374C41.0919 116.207 41.0919 120.135 44.7243 121.706C48.3567 123.277 66 118.04 66 118.04Z" fill="#FF9B04"/>
<path d="M147 117.96C147 117.96 164.643 123.459 168.276 121.626C171.908 119.793 171.908 115.865 168.276 114.294C164.643 112.723 147 117.96 147 117.96Z" fill="#FF9B04"/>
<path d="M161.614 82.9536C159.454 83.4536 153.954 89.4536 153.954 89.4536C153.954 89.4536 161.954 88.4536 163.614 86.4177C165.275 84.3818 163.775 82.4536 161.614 82.9536Z" fill="#FF9B04"/>
<path d="M163.647 150.036C162.133 148.416 154.187 146.652 154.187 146.652C154.187 146.652 159.053 153.081 161.647 153.5C164.24 153.92 165.16 151.657 163.647 150.036Z" fill="#FF9B04"/>
<path d="M139.376 63.2031C137.755 64.7163 135.992 72.6624 135.992 72.6624C135.992 72.6624 142.42 67.7964 142.84 65.2031C143.26 62.6098 140.997 61.69 139.376 63.2031Z" fill="#FF9B04"/>
<path d="M55.9147 154.217C58.075 153.717 63.575 147.717 63.575 147.717C63.575 147.717 55.5749 148.717 53.9147 150.753C52.2544 152.788 53.7544 154.717 55.9147 154.217Z" fill="#FF9B04"/>
<path d="M53.8824 87.134C55.3956 88.7548 63.3417 90.5179 63.3417 90.5179C63.3417 90.5179 58.4757 84.0897 55.8824 83.6699C53.2892 83.25 52.3693 85.5131 53.8824 87.134Z" fill="#FF9B04"/>
<path d="M78.1529 173.967C79.7738 172.454 81.5369 164.508 81.5369 164.508C81.5369 164.508 75.1087 169.374 74.6888 171.967C74.269 174.56 76.5321 175.48 78.1529 173.967Z" fill="#FF9B04"/>
<path d="M114 184V130.5L140.5 176.5C140.5 176.5 132.5 180.25 128 181.5C123.5 182.75 114 184 114 184Z" fill="#FF8C04"/>
<path d="M105.5 51L105.5 110L76 59C76 59 85.5849 54.7617 90 53.5C94.4151 52.2383 105.5 51 105.5 51Z" fill="#FF8C04"/>
<g style="mix-blend-mode:multiply">
<path d="M109 216C163.4 216 207.5 171.9 207.5 117.5C207.5 63.1 163.4 19 109 19V216Z" fill="#DDDDDD"/>
</g>
</svg>
